<mxfile host="app.diagrams.net" agent="Mozilla/5.0 (Windows NT 10.0; Win64; x64) AppleWebKit/537.36 (KHTML, like Gecko) Chrome/137.0.0.0 Safari/537.36" version="28.2.5">
  <diagram name="Страница — 1" id="joGgoKUKPo94lEf3e8PW">
    <mxGraphModel dx="1358" dy="748" grid="1" gridSize="10" guides="1" tooltips="1" connect="1" arrows="1" fold="1" page="1" pageScale="1" pageWidth="827" pageHeight="1169" math="1" shadow="0">
      <root>
        <mxCell id="0" />
        <mxCell id="1" parent="0" />
        <mxCell id="5S5nBJ1iuHe10xCnx2yZ-1" value="END" style="rounded=1;whiteSpace=wrap;html=1;" vertex="1" parent="1">
          <mxGeometry x="354" y="1180" width="120" height="60" as="geometry" />
        </mxCell>
        <mxCell id="5S5nBJ1iuHe10xCnx2yZ-5" value="" style="edgeStyle=orthogonalEdgeStyle;rounded=0;orthogonalLoop=1;jettySize=auto;html=1;exitX=0.5;exitY=1;exitDx=0;exitDy=0;" edge="1" parent="1" source="5S5nBJ1iuHe10xCnx2yZ-2">
          <mxGeometry relative="1" as="geometry">
            <mxPoint x="364" y="10" as="sourcePoint" />
            <mxPoint x="414" y="140" as="targetPoint" />
          </mxGeometry>
        </mxCell>
        <mxCell id="5S5nBJ1iuHe10xCnx2yZ-2" value="START" style="rounded=1;whiteSpace=wrap;html=1;glass=0;" vertex="1" parent="1">
          <mxGeometry x="354" y="40" width="120" height="60" as="geometry" />
        </mxCell>
        <mxCell id="5S5nBJ1iuHe10xCnx2yZ-9" style="edgeStyle=orthogonalEdgeStyle;rounded=0;orthogonalLoop=1;jettySize=auto;html=1;entryX=0.5;entryY=0;entryDx=0;entryDy=0;" edge="1" parent="1" source="5S5nBJ1iuHe10xCnx2yZ-3" target="5S5nBJ1iuHe10xCnx2yZ-8">
          <mxGeometry relative="1" as="geometry" />
        </mxCell>
        <mxCell id="5S5nBJ1iuHe10xCnx2yZ-3" value="x,y" style="shape=parallelogram;perimeter=parallelogramPerimeter;whiteSpace=wrap;html=1;fixedSize=1;" vertex="1" parent="1">
          <mxGeometry x="354" y="140" width="120" height="60" as="geometry" />
        </mxCell>
        <mxCell id="5S5nBJ1iuHe10xCnx2yZ-7" value="" style="edgeStyle=orthogonalEdgeStyle;rounded=0;orthogonalLoop=1;jettySize=auto;html=1;" edge="1" parent="1" source="5S5nBJ1iuHe10xCnx2yZ-6" target="5S5nBJ1iuHe10xCnx2yZ-1">
          <mxGeometry relative="1" as="geometry" />
        </mxCell>
        <mxCell id="5S5nBJ1iuHe10xCnx2yZ-6" value="A,B" style="shape=document;whiteSpace=wrap;html=1;boundedLbl=1;" vertex="1" parent="1">
          <mxGeometry x="354" y="1060" width="120" height="80" as="geometry" />
        </mxCell>
        <mxCell id="5S5nBJ1iuHe10xCnx2yZ-11" value="" style="edgeStyle=orthogonalEdgeStyle;rounded=0;orthogonalLoop=1;jettySize=auto;html=1;" edge="1" parent="1" source="5S5nBJ1iuHe10xCnx2yZ-8" target="5S5nBJ1iuHe10xCnx2yZ-10">
          <mxGeometry relative="1" as="geometry" />
        </mxCell>
        <mxCell id="5S5nBJ1iuHe10xCnx2yZ-8" value="&lt;div style=&quot;line-height: 19px;&quot;&gt;&lt;font face=&quot;Consolas, Courier New, monospace&quot;&gt;&lt;span style=&quot;font-size: 14px; white-space: pre;&quot;&gt;$$\text{cot_argument} = \frac{y}{x^2 + y^2}$$&lt;br&gt;&lt;/span&gt;&lt;/font&gt;&lt;/div&gt;" style="rounded=0;whiteSpace=wrap;html=1;" vertex="1" parent="1">
          <mxGeometry x="300" y="230" width="228" height="60" as="geometry" />
        </mxCell>
        <mxCell id="5S5nBJ1iuHe10xCnx2yZ-10" value="&lt;div&gt;$$&lt;span style=&quot;background-color: transparent; color: light-dark(rgb(0, 0, 0), rgb(255, 255, 255));&quot;&gt;\text{cot_step} = \frac{\cos\left(\text{cot_argument}\right)}{\sin\left(\text{cot_argument}\right)}&lt;/span&gt;&lt;span style=&quot;background-color: transparent; color: light-dark(rgb(0, 0, 0), rgb(255, 255, 255));&quot;&gt;$$&lt;/span&gt;&lt;/div&gt;" style="rounded=0;whiteSpace=wrap;html=1;" vertex="1" parent="1">
          <mxGeometry x="268" y="310" width="292" height="60" as="geometry" />
        </mxCell>
        <mxCell id="5S5nBJ1iuHe10xCnx2yZ-17" value="" style="edgeStyle=orthogonalEdgeStyle;rounded=0;orthogonalLoop=1;jettySize=auto;html=1;" edge="1" parent="1" target="5S5nBJ1iuHe10xCnx2yZ-18">
          <mxGeometry relative="1" as="geometry">
            <mxPoint x="414" y="380" as="sourcePoint" />
          </mxGeometry>
        </mxCell>
        <mxCell id="5S5nBJ1iuHe10xCnx2yZ-18" value="&lt;div&gt;$$\text{ln_step} = \ln(x^2 + y^2)&lt;/div&gt;&lt;div&gt;$$&lt;/div&gt;" style="rounded=0;whiteSpace=wrap;html=1;" vertex="1" parent="1">
          <mxGeometry x="354" y="390" width="116" height="60" as="geometry" />
        </mxCell>
        <mxCell id="5S5nBJ1iuHe10xCnx2yZ-19" value="" style="edgeStyle=orthogonalEdgeStyle;rounded=0;orthogonalLoop=1;jettySize=auto;html=1;" edge="1" parent="1" target="5S5nBJ1iuHe10xCnx2yZ-20">
          <mxGeometry relative="1" as="geometry">
            <mxPoint x="414" y="460" as="sourcePoint" />
          </mxGeometry>
        </mxCell>
        <mxCell id="5S5nBJ1iuHe10xCnx2yZ-20" value="" style="rounded=0;whiteSpace=wrap;html=1;" vertex="1" parent="1">
          <mxGeometry x="354" y="470" width="120" height="60" as="geometry" />
        </mxCell>
        <mxCell id="5S5nBJ1iuHe10xCnx2yZ-21" value="" style="edgeStyle=orthogonalEdgeStyle;rounded=0;orthogonalLoop=1;jettySize=auto;html=1;exitX=0.5;exitY=1;exitDx=0;exitDy=0;" edge="1" parent="1" target="5S5nBJ1iuHe10xCnx2yZ-22" source="5S5nBJ1iuHe10xCnx2yZ-20">
          <mxGeometry relative="1" as="geometry">
            <mxPoint x="484" y="520" as="sourcePoint" />
          </mxGeometry>
        </mxCell>
        <mxCell id="5S5nBJ1iuHe10xCnx2yZ-22" value="" style="rounded=0;whiteSpace=wrap;html=1;" vertex="1" parent="1">
          <mxGeometry x="354" y="550" width="120" height="60" as="geometry" />
        </mxCell>
        <mxCell id="5S5nBJ1iuHe10xCnx2yZ-23" value="" style="edgeStyle=orthogonalEdgeStyle;rounded=0;orthogonalLoop=1;jettySize=auto;html=1;" edge="1" parent="1" target="5S5nBJ1iuHe10xCnx2yZ-24">
          <mxGeometry relative="1" as="geometry">
            <mxPoint x="414" y="610" as="sourcePoint" />
          </mxGeometry>
        </mxCell>
        <mxCell id="5S5nBJ1iuHe10xCnx2yZ-24" value="" style="rounded=0;whiteSpace=wrap;html=1;" vertex="1" parent="1">
          <mxGeometry x="354" y="630" width="120" height="60" as="geometry" />
        </mxCell>
        <mxCell id="5S5nBJ1iuHe10xCnx2yZ-27" value="" style="edgeStyle=orthogonalEdgeStyle;rounded=0;orthogonalLoop=1;jettySize=auto;html=1;" edge="1" parent="1" target="5S5nBJ1iuHe10xCnx2yZ-28">
          <mxGeometry relative="1" as="geometry">
            <mxPoint x="414" y="690" as="sourcePoint" />
          </mxGeometry>
        </mxCell>
        <mxCell id="5S5nBJ1iuHe10xCnx2yZ-28" value="" style="rounded=0;whiteSpace=wrap;html=1;" vertex="1" parent="1">
          <mxGeometry x="354" y="710" width="120" height="60" as="geometry" />
        </mxCell>
        <mxCell id="5S5nBJ1iuHe10xCnx2yZ-29" value="" style="edgeStyle=orthogonalEdgeStyle;rounded=0;orthogonalLoop=1;jettySize=auto;html=1;" edge="1" parent="1" target="5S5nBJ1iuHe10xCnx2yZ-30">
          <mxGeometry relative="1" as="geometry">
            <mxPoint x="414" y="770" as="sourcePoint" />
          </mxGeometry>
        </mxCell>
        <mxCell id="5S5nBJ1iuHe10xCnx2yZ-30" value="" style="rounded=0;whiteSpace=wrap;html=1;" vertex="1" parent="1">
          <mxGeometry x="354" y="790" width="120" height="60" as="geometry" />
        </mxCell>
        <mxCell id="5S5nBJ1iuHe10xCnx2yZ-31" value="" style="edgeStyle=orthogonalEdgeStyle;rounded=0;orthogonalLoop=1;jettySize=auto;html=1;" edge="1" parent="1" target="5S5nBJ1iuHe10xCnx2yZ-32">
          <mxGeometry relative="1" as="geometry">
            <mxPoint x="414" y="850" as="sourcePoint" />
          </mxGeometry>
        </mxCell>
        <mxCell id="5S5nBJ1iuHe10xCnx2yZ-32" value="" style="rounded=0;whiteSpace=wrap;html=1;" vertex="1" parent="1">
          <mxGeometry x="354" y="870" width="120" height="60" as="geometry" />
        </mxCell>
        <mxCell id="5S5nBJ1iuHe10xCnx2yZ-35" value="" style="edgeStyle=orthogonalEdgeStyle;rounded=0;orthogonalLoop=1;jettySize=auto;html=1;" edge="1" parent="1" target="5S5nBJ1iuHe10xCnx2yZ-36">
          <mxGeometry relative="1" as="geometry">
            <mxPoint x="414" y="930" as="sourcePoint" />
          </mxGeometry>
        </mxCell>
        <mxCell id="5S5nBJ1iuHe10xCnx2yZ-37" value="" style="edgeStyle=orthogonalEdgeStyle;rounded=0;orthogonalLoop=1;jettySize=auto;html=1;" edge="1" parent="1" source="5S5nBJ1iuHe10xCnx2yZ-36" target="5S5nBJ1iuHe10xCnx2yZ-6">
          <mxGeometry relative="1" as="geometry">
            <Array as="points">
              <mxPoint x="414" y="1060" />
              <mxPoint x="414" y="1060" />
            </Array>
          </mxGeometry>
        </mxCell>
        <mxCell id="5S5nBJ1iuHe10xCnx2yZ-36" value="" style="rounded=0;whiteSpace=wrap;html=1;" vertex="1" parent="1">
          <mxGeometry x="354" y="950" width="120" height="60" as="geometry" />
        </mxCell>
      </root>
    </mxGraphModel>
  </diagram>
</mxfile>
